#!OML:ASF E:\motion texture\Top Level 1\Subject 1\Session 1\male.ASF
:FULLY-SPECIFIED
:DEGREES
630
root -21.2864 17.9672 3.46175 1025.02 -103.299 -1024.42
lowerback 2.40858 3.05354 9.09871
upperback -1.30212 4.35447 3.69031
thorax -2.31724 1.99571 -1.42491
lowerneck -19.279 -5.56931 -6.5211
upperneck 14.2784 -7.10105 6.84269
head 8.0677 -3.07268 2.43951
rclavicle -4.71803e-015 -4.46272e-014
rhumerus 23.6856 14.0052 -69.6302
rradius 84.6904
rwrist -11.7349
rhand -18.2164 -13.2819
rfingers 7.12502
rthumb 8.06149 -43.1081
lclavicle -4.71803e-015 -4.46272e-014
lhumerus -71.9584 -7.55806 84.3382
lradius 45.8637
lwrist 3.15048
lhand -14.3714 5.58756
lfingers 7.12502
lthumb 11.7709 35.2368
rfemur 5.21956 5.42392 37.1069
rtibia 18.8239
rfoot 524.671 -181.36
rtoes 14.877
lfemur -87.8129 12.3468 -12.8678
ltibia 80.5808
lfoot 550.552 28.8405
ltoes -3.66643
631
root -21.4282 17.9461 3.46303 1025.01 -103.319 -1024.17
lowerback 2.15115 3.05083 9.11415
upperback -1.38955 4.32458 3.69732
thorax -2.26547 1.97997 -1.41266
lowerneck -19.2204 -5.56653 -6.54126
upperneck 14.2965 -7.10609 6.88771
head 8.06674 -3.07319 2.45814
rclavicle -4.07819e-015 -3.926e-014
rhumerus 22.8871 14.2167 -69.7781
rradius 84.587
rwrist -11.6013
rhand -18.0818 -13.2476
rfingers 7.12502
rthumb 8.19138 -43.0688
lclavicle -4.07819e-015 -3.926e-014
lhumerus -71.4585 -7.65179 84.5581
lradius 46.1173
lwrist 3.32878
lhand -14.4839 5.67547
lfingers 7.12502
lthumb 11.6625 35.3309
rfemur 5.42804 5.57125 37.17
rtibia 18.9273
rfoot 524.397 -181.492
rtoes 13.9144
lfemur -86.5668 12.5521 -12.81
ltibia 83.0443
lfoot 552.41 44.4556
ltoes -3.89255
632
root -21.5717 17.9242 3.46462 1025.04 -103.343 -1023.96
lowerback 1.88433 3.04974 9.12766
upperback -1.48463 4.29587 3.70569
thorax -2.21652 1.96444 -1.3978
lowerneck -19.1677 -5.56254 -6.56447
upperneck 14.3299 -7.10842 6.92823
head 8.07162 -3.07278 2.47601
rclavicle 2.7864e-014 -8.64713e-015
rhumerus 22.0034 14.4707 -69.9571
rradius 84.4674
rwrist -11.4562
rhand -17.944 -13.2115
rfingers 7.12502
rthumb 8.32434 -43.0275
lclavicle 2.7864e-014 -8.64713e-015
lhumerus -70.8839 -7.73902 84.7944
lradius 46.3415
lwrist 3.49422
lhand -14.6223 5.76622
lfingers 7.12502
lthumb 11.529 35.4291
rfemur 5.64493 5.75243 37.241
rtibia 19.0179
rfoot 524.134 -181.65
rtoes 12.9168
lfemur -85.1835 12.7825 -12.736
ltibia 85.4766
lfoot 555.46 59.9193
ltoes -4.0758
633
root -21.717 17.9012 3.46659 1025.13 -103.371 -1023.79
lowerback 1.61146 3.049 9.14067
upperback -1.58699 4.26705 3.71563
thorax -2.17191 1.94836 -1.38107
lowerneck -19.1151 -5.55508 -6.58635
upperneck 14.3773 -7.1051 6.95739
head 8.08027 -3.0706 2.49063
rclavicle -7.94207e-015 1.19271e-015
rhumerus 21.0408 14.7706 -70.1682
rradius 84.3356
rwrist -11.321
rhand -17.787 -13.2108
rfingers 7.12502
rthumb 8.47591 -43.0207
lclavicle -7.94207e-015 1.19271e-015
lhumerus -70.2453 -7.81683 85.046
lradius 46.5394
lwrist 3.64212
lhand -14.7722 5.87393
lfingers 7.12502
lthumb 11.3844 35.5449
rfemur 5.87497 5.9596 37.3168
rtibia 19.0996
rfoot 523.876 -181.825
rtoes 11.9011
lfemur -83.6562 13.0353 -12.6436
ltibia 87.4597
lfoot 562.622 75.1381
ltoes -4.16988
634
root -21.8649 17.8772 3.46905 1025.29 -103.401 -1023.7
lowerback 1.33367 3.0513 9.15131
upperback -1.68747 4.24117 3.72258
thorax -2.12223 1.93397 -1.36598
lowerneck -19.0829 -5.54562 -6.60247
upperneck 14.4364 -7.09836 6.97776
head 8.09547 -3.06677 2.50149
rclavicle -1.89995e-014 -2.09718e-014
rhumerus 20.0022 15.106 -70.4094
rradius 84.1836
rwrist -11.1994
rhand -17.622 -13.2201
rfingers 7.12502
rthumb 8.63511 -43.0235
lclavicle -1.89995e-014 -2.09718e-014
lhumerus -69.5319 -7.8915 85.3106
lradius 46.7091
lwrist 3.77607
lhand -14.9464 5.98828
lfingers 7.12502
lthumb 11.2165 35.6684
rfemur 6.13529 6.18893 37.388
rtibia 19.1615
rfoot 523.628 -182.011
rtoes 10.8938
lfemur -81.9749 13.3087 -12.534
ltibia 88.652
lfoot 654.633 86.9532
ltoes -4.16781
